<?xml version="1.0" encoding="utf-8"?>
<!-- Generator: Adobe Illustrator 23.0.0, SVG Export Plug-In . SVG Version: 6.00 Build 0)  -->
<svg version="1.1" id="Layer_1" xmlns="http://www.w3.org/2000/svg" xmlns:xlink="http://www.w3.org/1999/xlink" x="0px" y="0px"
	 viewBox="0 0 550.41 155.81" style="enable-background:new 0 0 550.41 155.81;" xml:space="preserve">
<style type="text/css">
	.st0{fill:url(#SVGID_1_);}
	.st1{fill:url(#SVGID_2_);}
	.st2{fill:url(#SVGID_3_);}
	.st3{fill:url(#SVGID_4_);}
	.st4{fill:url(#SVGID_5_);}
	.st5{fill:url(#SVGID_6_);}
	.st6{fill:url(#SVGID_7_);}
	.st7{fill:url(#SVGID_8_);}
	.st8{fill:url(#SVGID_9_);}
	.st9{fill:url(#SVGID_10_);}
	.st10{fill:url(#SVGID_11_);}
	.st11{fill:url(#SVGID_12_);}
	.st12{fill:url(#SVGID_13_);}
	.st13{fill:url(#SVGID_14_);}
	.st14{fill:url(#SVGID_15_);}
	.st15{fill:url(#SVGID_16_);}
	.st16{fill:url(#SVGID_17_);}
	.st17{fill:url(#SVGID_18_);}
	.st18{fill:url(#SVGID_19_);}
	.st19{fill:url(#SVGID_20_);}
	.st20{fill:url(#SVGID_21_);}
	.st21{fill:url(#SVGID_22_);}
	.st22{fill:url(#SVGID_23_);}
	.st23{fill:url(#SVGID_24_);}
	.st24{fill:url(#SVGID_25_);}
	.st25{fill:url(#SVGID_26_);}
	.st26{fill:url(#SVGID_27_);}
	.st27{fill:#FFFFFF;}
</style>
<g>
	
		<radialGradient id="SVGID_1_" cx="53.1899" cy="66.4291" r="5.244" gradientTransform="matrix(1.001 0 0 0.973 -0.0585 2.0691)" gradientUnits="userSpaceOnUse">
		<stop  offset="4.303761e-07" style="stop-color:#B1E3FA"/>
		<stop  offset="1" style="stop-color:#0082C9"/>
	</radialGradient>
	<path class="st0" d="M48.92,66.7c0,3.31,1.87,5.91,4.27,5.91c2.39,0,4.27-2.59,4.27-5.91c0-3.31-1.87-5.91-4.27-5.91
		C50.79,60.8,48.92,63.39,48.92,66.7z M55.12,66.7c0,2.09-1.02,3.64-1.94,3.64c-0.92,0-1.94-1.56-1.94-3.64
		c0-2.09,1.02-3.64,1.94-3.64C54.1,63.06,55.12,64.62,55.12,66.7z"/>
	
		<radialGradient id="SVGID_2_" cx="53.1899" cy="66.9476" r="9.9857" gradientTransform="matrix(1.001 0 0 0.973 -0.0585 2.0691)" gradientUnits="userSpaceOnUse">
		<stop  offset="4.303761e-07" style="stop-color:#B1E3FA"/>
		<stop  offset="1" style="stop-color:#0082C9"/>
	</radialGradient>
	<path class="st1" d="M44.55,67.21c0,6,3.87,10.88,8.63,10.88c4.76,0,8.63-4.88,8.63-10.88c0-6-3.87-10.88-8.63-10.88
		C48.42,56.33,44.55,61.21,44.55,67.21z M59.49,67.21c0,4.75-2.83,8.62-6.31,8.62c-3.48,0-6.31-3.87-6.31-8.62
		c0-4.75,2.83-8.62,6.31-8.62C56.66,58.59,59.49,62.46,59.49,67.21z"/>
	
		<radialGradient id="SVGID_3_" cx="53.1899" cy="67.4664" r="14.7348" gradientTransform="matrix(1.001 0 0 0.973 -0.0585 2.0691)" gradientUnits="userSpaceOnUse">
		<stop  offset="4.303761e-07" style="stop-color:#B1E3FA"/>
		<stop  offset="1" style="stop-color:#0082C9"/>
	</radialGradient>
	<path class="st2" d="M40.18,67.71c0,8.74,5.83,15.85,13,15.85c7.17,0,13-7.11,13-15.85c0-8.74-5.83-15.85-13-15.85
		C46.01,51.86,40.18,58.97,40.18,67.71z M63.86,67.71c0,7.49-4.79,13.59-10.68,13.59c-5.89,0-10.68-6.1-10.68-13.59
		c0-7.49,4.79-13.59,10.68-13.59C59.07,54.12,63.86,60.22,63.86,67.71z"/>
	
		<radialGradient id="SVGID_4_" cx="53.1899" cy="67.985" r="19.4857" gradientTransform="matrix(1.001 0 0 0.973 -0.0585 2.0691)" gradientUnits="userSpaceOnUse">
		<stop  offset="4.303761e-07" style="stop-color:#B1E3FA"/>
		<stop  offset="1" style="stop-color:#0082C9"/>
	</radialGradient>
	<path class="st3" d="M35.81,68.22c0,11.48,7.79,20.83,17.37,20.83c9.58,0,17.37-9.34,17.37-20.83c0-11.48-7.79-20.83-17.37-20.83
		C43.6,47.39,35.81,56.73,35.81,68.22z M68.23,68.22c0,10.24-6.75,18.56-15.05,18.56c-8.3,0-15.05-8.33-15.05-18.56
		s6.75-18.56,15.05-18.56C61.48,49.65,68.23,57.98,68.23,68.22z"/>
	
		<radialGradient id="SVGID_5_" cx="53.1899" cy="68.504" r="24.2375" gradientTransform="matrix(1.001 0 0 0.973 -0.0585 2.0691)" gradientUnits="userSpaceOnUse">
		<stop  offset="4.303761e-07" style="stop-color:#B1E3FA"/>
		<stop  offset="1" style="stop-color:#0082C9"/>
	</radialGradient>
	<path class="st4" d="M31.44,68.72c0,14.23,9.75,25.8,21.74,25.8c11.99,0,21.74-11.57,21.74-25.8c0-14.23-9.75-25.8-21.74-25.8
		C41.19,42.92,31.44,54.5,31.44,68.72z M72.6,68.72c0,12.98-8.71,23.54-19.42,23.54c-10.71,0-19.42-10.56-19.42-23.54
		c0-12.98,8.71-23.54,19.42-23.54C63.89,45.18,72.6,55.74,72.6,68.72z"/>
	
		<radialGradient id="SVGID_6_" cx="53.1899" cy="69.0227" r="28.9896" gradientTransform="matrix(1.001 0 0 0.973 -0.0585 2.0691)" gradientUnits="userSpaceOnUse">
		<stop  offset="4.303761e-07" style="stop-color:#B1E3FA"/>
		<stop  offset="1" style="stop-color:#0082C9"/>
	</radialGradient>
	<path class="st5" d="M27.07,69.23C27.07,86.2,38.79,100,53.18,100c14.4,0,26.11-13.81,26.11-30.77c0-16.97-11.71-30.77-26.11-30.77
		C38.79,38.45,27.07,52.26,27.07,69.23z M76.97,69.23c0,15.72-10.67,28.51-23.78,28.51c-13.11,0-23.78-12.79-23.78-28.51
		c0-15.72,10.67-28.51,23.78-28.51C66.3,40.72,76.97,53.51,76.97,69.23z"/>
	
		<radialGradient id="SVGID_7_" cx="53.1898" cy="69.5411" r="33.7419" gradientTransform="matrix(1.001 0 0 0.973 -0.0585 2.0691)" gradientUnits="userSpaceOnUse">
		<stop  offset="4.303761e-07" style="stop-color:#B1E3FA"/>
		<stop  offset="1" style="stop-color:#0082C9"/>
	</radialGradient>
	<path class="st6" d="M22.7,69.73c0,19.71,13.67,35.75,30.48,35.75c16.81,0,30.48-16.04,30.48-35.75S69.99,33.98,53.18,33.98
		C36.38,33.98,22.7,50.02,22.7,69.73z M81.34,69.73c0,18.46-12.63,33.49-28.15,33.49c-15.52,0-28.15-15.02-28.15-33.49
		c0-18.46,12.63-33.49,28.15-33.49C68.71,36.25,81.34,51.27,81.34,69.73z"/>
	
		<radialGradient id="SVGID_8_" cx="53.1899" cy="70.0599" r="38.4945" gradientTransform="matrix(1.001 0 0 0.973 -0.0585 2.0691)" gradientUnits="userSpaceOnUse">
		<stop  offset="4.303761e-07" style="stop-color:#B1E3FA"/>
		<stop  offset="1" style="stop-color:#0082C9"/>
	</radialGradient>
	<path class="st7" d="M18.33,70.24c0,22.45,15.63,40.72,34.85,40.72c19.22,0,34.85-18.27,34.85-40.72
		c0-22.45-15.63-40.72-34.85-40.72C33.97,29.52,18.33,47.78,18.33,70.24z M85.71,70.24c0,21.21-14.59,38.46-32.52,38.46
		c-17.93,0-32.52-17.25-32.52-38.46s14.59-38.46,32.52-38.46C71.12,31.78,85.71,49.03,85.71,70.24z"/>
	
		<radialGradient id="SVGID_9_" cx="53.1899" cy="70.5788" r="43.247" gradientTransform="matrix(1.001 0 0 0.973 -0.0585 2.0691)" gradientUnits="userSpaceOnUse">
		<stop  offset="4.303761e-07" style="stop-color:#B1E3FA"/>
		<stop  offset="1" style="stop-color:#0082C9"/>
	</radialGradient>
	<path class="st8" d="M13.96,70.74c0,25.2,17.59,45.69,39.22,45.69c21.63,0,39.22-20.5,39.22-45.69c0-25.2-17.59-45.69-39.22-45.69
		C31.56,25.05,13.96,45.55,13.96,70.74z M90.07,70.74c0,23.95-16.55,43.43-36.89,43.43c-20.34,0-36.89-19.48-36.89-43.43
		c0-23.95,16.55-43.43,36.89-43.43C73.52,27.31,90.07,46.79,90.07,70.74z"/>
	
		<radialGradient id="SVGID_10_" cx="53.1899" cy="71.4907" r="47.7867" gradientTransform="matrix(1.001 0 0 0.973 -0.0585 2.0691)" gradientUnits="userSpaceOnUse">
		<stop  offset="4.303761e-07" style="stop-color:#B1E3FA"/>
		<stop  offset="1" style="stop-color:#0082C9"/>
	</radialGradient>
	<path class="st9" d="M53.18,121.91c24.03,0,43.59-22.73,43.59-50.67c0-24.59-15.09-45.57-35.87-49.88
		c-0.63-0.13-1.25,0.26-1.38,0.87c-0.13,0.61,0.27,1.21,0.89,1.34c19.72,4.09,34.03,24.14,34.03,47.67
		c0,26.69-18.51,48.41-41.26,48.41c-22.75,0-41.26-21.72-41.26-48.41c0-6.68,1.14-13.15,3.39-19.23c0.22-0.59-0.1-1.24-0.7-1.45
		c-0.6-0.21-1.27,0.09-1.49,0.68c-2.34,6.33-3.53,13.06-3.53,20C9.6,99.18,29.15,121.91,53.18,121.91z"/>
	
		<radialGradient id="SVGID_11_" cx="53.1912" cy="110.7861" r="33.6522" gradientTransform="matrix(1.001 0 0 0.973 -0.0585 2.0691)" gradientUnits="userSpaceOnUse">
		<stop  offset="4.303761e-07" style="stop-color:#B1E3FA"/>
		<stop  offset="1" style="stop-color:#0082C9"/>
	</radialGradient>
	<path class="st10" d="M96.51,92.4c-0.6-0.21-1.27,0.09-1.49,0.68c-7.26,19.47-23.68,32.05-41.83,32.05
		c-18.15,0-34.57-12.58-41.83-32.04c-0.22-0.59-0.89-0.89-1.49-0.68c-0.6,0.21-0.92,0.86-0.7,1.45
		c7.61,20.37,24.88,33.53,44.02,33.53c19.14,0,36.42-13.17,44.02-33.54C97.42,93.26,97.11,92.61,96.51,92.4z"/>
	
		<radialGradient id="SVGID_12_" cx="39.4743" cy="119.7452" r="23.6755" gradientTransform="matrix(1.001 0 0 0.973 -0.0585 2.0691)" gradientUnits="userSpaceOnUse">
		<stop  offset="4.303761e-07" style="stop-color:#B1E3FA"/>
		<stop  offset="1" style="stop-color:#0082C9"/>
	</radialGradient>
	<path class="st11" d="M67.75,128.58c-4.69,1.68-9.59,2.53-14.56,2.53c-17,0-32.86-10.23-41.39-26.7c-0.29-0.56-0.99-0.78-1.56-0.5
		c-0.57,0.28-0.81,0.96-0.52,1.52c8.92,17.24,25.58,27.95,43.47,27.95c5.25,0,10.42-0.9,15.37-2.67c0.6-0.22,0.91-0.87,0.69-1.45
		C69.02,128.67,68.35,128.37,67.75,128.58z"/>
	
		<radialGradient id="SVGID_13_" cx="81.3584" cy="122.0763" r="8.6741" gradientTransform="matrix(1.001 0 0 0.973 -0.0585 2.0691)" gradientUnits="userSpaceOnUse">
		<stop  offset="4.303761e-07" style="stop-color:#B1E3FA"/>
		<stop  offset="1" style="stop-color:#0082C9"/>
	</radialGradient>
	<path class="st12" d="M90.26,113.33c-0.5-0.39-1.24-0.3-1.63,0.19c-4.49,5.55-9.86,9.91-15.94,12.96c-0.57,0.29-0.8,0.97-0.5,1.52
		c0.21,0.39,0.61,0.61,1.04,0.61c0.18,0,0.36-0.04,0.53-0.13c6.39-3.2,12.01-7.76,16.71-13.57
		C90.85,114.42,90.77,113.71,90.26,113.33z"/>
	
		<radialGradient id="SVGID_14_" cx="93.7885" cy="108.7662" r="3.6445" gradientTransform="matrix(1.001 0 0 0.973 -0.0585 2.0691)" gradientUnits="userSpaceOnUse">
		<stop  offset="4.303761e-07" style="stop-color:#B1E3FA"/>
		<stop  offset="1" style="stop-color:#0082C9"/>
	</radialGradient>
	<path class="st13" d="M96.13,103.91c-0.57-0.28-1.27-0.06-1.56,0.5c-1.05,2.02-2.23,3.99-3.5,5.84c-0.36,0.52-0.21,1.22,0.32,1.57
		c0.2,0.13,0.42,0.19,0.65,0.19c0.38,0,0.74-0.18,0.97-0.5c1.33-1.93,2.56-3.98,3.65-6.09C96.94,104.87,96.7,104.19,96.13,103.91z"
		/>
	
		<radialGradient id="SVGID_15_" cx="35.3428" cy="33.4857" r="17.6431" gradientTransform="matrix(1.001 0 0 0.973 -0.0585 2.0691)" gradientUnits="userSpaceOnUse">
		<stop  offset="4.303761e-07" style="stop-color:#B1E3FA"/>
		<stop  offset="1" style="stop-color:#0082C9"/>
	</radialGradient>
	<path class="st14" d="M15.59,48.49c0.14,0.05,0.29,0.08,0.43,0.08c0.46,0,0.9-0.27,1.08-0.71c6.32-15.44,21.38-25.41,37.47-24.84
		c0.64,0.03,1.18-0.46,1.21-1.09c0.02-0.62-0.48-1.15-1.12-1.17c-8.56-0.31-16.89,2.08-24.06,6.92c-7,4.72-12.42,11.41-15.66,19.34
		C14.7,47.6,14.99,48.26,15.59,48.49z"/>
	
		<radialGradient id="SVGID_16_" cx="9.1423" cy="26.0249" r="6.8652" gradientTransform="matrix(1.001 0 0 0.973 -0.0585 2.0691)" gradientUnits="userSpaceOnUse">
		<stop  offset="4.303761e-07" style="stop-color:#B1E3FA"/>
		<stop  offset="1" style="stop-color:#0082C9"/>
	</radialGradient>
	<polygon class="st15" points="16.24,21 1.94,21 1.94,33.79 4.82,33.79 4.82,23.49 16.24,23.49 	"/>
	
		<radialGradient id="SVGID_17_" cx="96.735" cy="26.0249" r="6.8652" gradientTransform="matrix(1.001 0 0 0.973 -0.0585 2.0691)" gradientUnits="userSpaceOnUse">
		<stop  offset="4.303761e-07" style="stop-color:#B1E3FA"/>
		<stop  offset="1" style="stop-color:#0082C9"/>
	</radialGradient>
	<polygon class="st16" points="89.62,21 103.92,21 103.92,33.79 101.04,33.79 101.04,23.49 89.62,23.49 	"/>
	
		<radialGradient id="SVGID_18_" cx="9.1423" cy="128.0942" r="6.8652" gradientTransform="matrix(1.001 0 0 0.973 -0.0585 2.0691)" gradientUnits="userSpaceOnUse">
		<stop  offset="4.303761e-07" style="stop-color:#B1E3FA"/>
		<stop  offset="1" style="stop-color:#0082C9"/>
	</radialGradient>
	<polygon class="st17" points="16.24,133.1 1.94,133.1 1.94,120.31 4.82,120.31 4.82,130.61 16.24,130.61 	"/>
	
		<radialGradient id="SVGID_19_" cx="96.7154" cy="128.0942" r="6.8652" gradientTransform="matrix(1.001 0 0 0.973 -0.0585 2.0691)" gradientUnits="userSpaceOnUse">
		<stop  offset="4.303761e-07" style="stop-color:#B1E3FA"/>
		<stop  offset="1" style="stop-color:#0082C9"/>
	</radialGradient>
	<polygon class="st18" points="89.6,133.1 103.9,133.1 103.9,120.31 101.02,120.31 101.02,130.61 89.6,130.61 	"/>
</g>
<radialGradient id="SVGID_20_" cx="157.8368" cy="66.7501" r="34.7162" gradientTransform="matrix(1.0721 0 0 1.1429 -20.824 -11.3188)" gradientUnits="userSpaceOnUse">
	<stop  offset="4.939544e-07" style="stop-color:#00B7F1"/>
	<stop  offset="1" style="stop-color:#0F82C5"/>
</radialGradient>
<path class="st19" d="M116.33,109.47V20.47h8.71h26.25c9.51,0,16.74,2.38,21.71,7.13c4.96,4.75,7.45,11.66,7.45,20.72
	c0,9.6-2.48,16.9-7.45,21.9c-4.96,5-12.2,7.5-21.71,7.5c-6.73-0.04-12.56-0.02-17.48,0.07v31.69h-8.71H116.33z M133.81,62.38h14.51
	c4.88,0,8.54-1.15,10.98-3.47c2.44-2.31,3.66-5.77,3.66-10.39c0-4.26-1.22-7.44-3.66-9.55c-2.44-2.11-6.1-3.16-10.98-3.16h-14.51
	V62.38z"/>
<radialGradient id="SVGID_21_" cx="206.8978" cy="74.589" r="24.0458" gradientTransform="matrix(1.0721 0 0 1.1429 -20.824 -11.3188)" gradientUnits="userSpaceOnUse">
	<stop  offset="4.939544e-07" style="stop-color:#00B7F1"/>
	<stop  offset="1" style="stop-color:#0F82C5"/>
</radialGradient>
<path class="st20" d="M183,107.74V41.87h7.7h7.83v11.77c0.55-1.25,1.18-2.49,1.89-3.7c3.83-6.55,8.77-9.82,14.83-9.82l3.72,0.07
	v17.69c-1.47-0.14-3.11-0.2-4.92-0.2c-4.96,0-8.67,1.31-11.11,3.94c-2.44,2.62-3.66,6.61-3.66,11.94v34.18h-8.14H183z"/>
<radialGradient id="SVGID_22_" cx="253.7302" cy="75.3247" r="29.9061" gradientTransform="matrix(1.0721 0 0 1.1429 -20.824 -11.3188)" gradientUnits="userSpaceOnUse">
	<stop  offset="4.939544e-07" style="stop-color:#00B7F1"/>
	<stop  offset="1" style="stop-color:#0F82C5"/>
</radialGradient>
<path class="st21" d="M251.13,109.42c-9.63,0-17.3-3.08-23-9.25c-5.7-6.17-8.55-14.5-8.55-24.99c0-10.76,2.85-19.3,8.55-25.6
	c5.7-6.3,13.37-9.45,23-9.45c9.76,0,17.48,3.15,23.16,9.45c5.68,6.3,8.52,14.83,8.52,25.6c0,10.49-2.84,18.83-8.52,24.99
	C268.61,106.34,260.89,109.42,251.13,109.42z M251.13,94.89c4.88,0,8.58-1.69,11.11-5.08c2.52-3.39,3.79-8.33,3.79-14.83
	c0-6.64-1.26-11.68-3.79-15.14c-2.52-3.45-6.23-5.18-11.11-5.18c-4.84,0-8.52,1.73-11.04,5.18c-2.52,3.45-3.79,8.5-3.79,15.14
	c0,6.5,1.26,11.45,3.79,14.83C242.61,93.19,246.29,94.89,251.13,94.89z"/>
<radialGradient id="SVGID_23_" cx="315.161" cy="75.3247" r="29.9062" gradientTransform="matrix(1.0721 0 0 1.1429 -20.824 -11.3188)" gradientUnits="userSpaceOnUse">
	<stop  offset="4.939544e-07" style="stop-color:#00B7F1"/>
	<stop  offset="1" style="stop-color:#0F82C5"/>
</radialGradient>
<path class="st22" d="M316.99,109.42c-9.64,0-17.3-3.08-23-9.25c-5.7-6.17-8.55-14.5-8.55-24.99c0-10.76,2.85-19.3,8.55-25.6
	c5.7-6.3,13.37-9.45,23-9.45c9.76,0,17.48,3.15,23.16,9.45s8.52,14.83,8.52,25.6c0,10.49-2.84,18.83-8.52,24.99
	C334.47,106.34,326.75,109.42,316.99,109.42z M316.99,94.89c4.88,0,8.58-1.69,11.11-5.08c2.52-3.39,3.79-8.33,3.79-14.83
	c0-6.64-1.26-11.68-3.79-15.14c-2.52-3.45-6.23-5.18-11.11-5.18c-4.84,0-8.52,1.73-11.04,5.18c-2.53,3.45-3.79,8.5-3.79,15.14
	c0,6.5,1.26,11.45,3.79,14.83C308.47,93.19,312.15,94.89,316.99,94.89z"/>
<radialGradient id="SVGID_24_" cx="363.1098" cy="64.6964" r="30.3112" gradientTransform="matrix(1.0721 0 0 1.1429 -20.824 -11.3188)" gradientUnits="userSpaceOnUse">
	<stop  offset="4.939544e-07" style="stop-color:#00B7F1"/>
	<stop  offset="1" style="stop-color:#0F82C5"/>
</radialGradient>
<path class="st23" d="M375.84,54.05v53.69h-8.08h-8.2V54.05h-9.02V41.87h9.02v-5.52c0-6.32,1.58-11.04,4.73-14.16
	c3.16-3.12,7.95-4.68,14.39-4.68c2.9-0.04,5.47,0.09,7.7,0.4v13.86h-5.18c-2.15,0-3.58,0.47-4.29,1.41
	c-0.72,0.94-1.07,2.85-1.07,5.72v2.96h10.54v12.18H375.84z"/>
<radialGradient id="SVGID_25_" cx="427.8346" cy="74.589" r="35.9511" gradientTransform="matrix(1.0721 0 0 1.1429 -20.824 -11.3188)" gradientUnits="userSpaceOnUse">
	<stop  offset="4.939544e-07" style="stop-color:#00B7F1"/>
	<stop  offset="1" style="stop-color:#0F82C5"/>
</radialGradient>
<path class="st24" d="M393.52,107.74V41.87h7.7h7.83v10.56c0.72-1.84,1.62-3.47,2.71-4.91c3.58-4.93,8.79-7.4,15.65-7.4
	c5.47,0,9.95,1.95,13.44,5.85c1.35,1.48,2.42,3.14,3.22,4.98l1.96-3.43c3.37-4.93,8.27-7.4,14.7-7.4c6.73,0,11.99,2.12,15.78,6.36
	c3.79,4.24,5.68,10.1,5.68,17.59v43.66h-8.14h-8.2V69.05c0-4.93-0.76-8.58-2.27-10.93c-1.51-2.35-3.85-3.53-7-3.53
	c-3.41,0-6.02,1.12-7.83,3.36c-1.81,2.24-2.71,5.45-2.71,9.62v40.16h-8.08h-8.2V66.23c0-3.99-0.8-6.93-2.4-8.81
	c-1.6-1.88-4.04-2.83-7.32-2.83s-5.81,1.12-7.57,3.36c-1.77,2.24-2.65,5.45-2.65,9.62v40.16h-8.14H393.52z"/>
<radialGradient id="SVGID_26_" cx="501.0806" cy="75.3247" r="28.9151" gradientTransform="matrix(1.0721 0 0 1.1429 -20.824 -11.3188)" gradientUnits="userSpaceOnUse">
	<stop  offset="4.939544e-07" style="stop-color:#00B7F1"/>
	<stop  offset="1" style="stop-color:#0F82C5"/>
</radialGradient>
<path class="st25" d="M516.36,109.42c-9.42,0-16.68-3.08-21.77-9.25c-5.09-6.17-7.64-14.97-7.64-26.41c0-10.54,2.6-18.78,7.79-24.73
	c5.2-5.94,12.4-8.91,21.61-8.91c9.42,0,16.68,3.04,21.77,9.12c5.09,6.08,7.64,14.72,7.64,25.94c0.08,1.3-0.02,2.6-0.32,3.9h-42.09
	c0.38,5.2,1.47,9.11,3.28,11.71c2.27,3.23,6.06,4.84,11.36,4.84c2.44,0,4.71-0.75,6.82-2.25c2.1-1.5,3.37-3.29,3.79-5.35h16.6
	c-1.43,6.68-4.69,11.92-9.78,15.71C530.33,107.52,523.98,109.42,516.36,109.42z M528.8,68.04c-0.38-3.99-1.37-7.09-2.97-9.29
	c-2.1-2.96-5.34-4.44-9.72-4.44c-4.21,0-7.41,1.73-9.59,5.18c-1.39,2.15-2.38,5-2.97,8.54H528.8z"/>
<radialGradient id="SVGID_27_" cx="329.8098" cy="123.9199" r="166.2715" gradientTransform="matrix(0.927 0 0 1 22.043 0)" gradientUnits="userSpaceOnUse">
	<stop  offset="4.939544e-07" style="stop-color:#00B7F1"/>
	<stop  offset="1" style="stop-color:#0F82C5"/>
</radialGradient>
<rect x="110.06" y="112.28" class="st26" width="435.4" height="23.28"/>
<g>
	<g>
		<path class="st27" d="M114.32,114.63h5.35c4.42,0,7.49,3.07,7.49,7.88c0,4.79-3,8.15-7.51,8.15h-5.32V114.63z M115.56,129.52h3.89
			c4.26,0,6.36-2.98,6.36-6.94c0-3.53-1.89-6.8-6.36-6.8h-3.89V129.52z"/>
		<path class="st27" d="M132.47,113.78h1.15v2.22h-1.15V113.78z M132.47,119.21h1.15v11.45h-1.15V119.21z"/>
		<path class="st27" d="M148.35,129.89c0,3.66-1.64,5.59-4.98,5.59c-3,0-4.24-1.67-4.52-3.41h1.17c0.42,1.58,1.73,2.34,3.39,2.34
			c3,0,3.82-1.92,3.82-4.83v-1.19c-0.62,1.49-1.75,2.29-3.85,2.29c-2.7,0-4.77-2.18-4.77-5.73c0-3.85,2.21-6,4.93-6
			c2.35,0,3.36,1.1,3.69,2.02c0.02-0.66,0.05-1.47,0.07-1.74h1.08c0,0.41-0.05,2.22-0.05,3.32V129.89z M139.85,124.89
			c0,2.73,1.45,4.7,3.66,4.7c2.88,0,3.76-1.9,3.76-4.88c0-3.02-0.92-4.69-3.69-4.69C140.93,120.01,139.85,122.28,139.85,124.89z"/>
		<path class="st27" d="M154.27,113.78h1.15v2.22h-1.15V113.78z M154.27,119.21h1.15v11.45h-1.15V119.21z"/>
		<path class="st27" d="M159.62,119.21h2.14v-3.57h1.15v3.57h2.74v1.08h-2.74v7.44c0,1.28,0.28,2.02,1.38,2.02
			c0.35,0,0.83-0.02,1.2-0.14v1.01c-0.39,0.16-0.94,0.21-1.43,0.21c-1.47,0-2.3-0.73-2.3-2.57v-7.97h-2.14V119.21z"/>
		<path class="st27" d="M178.05,128.49c0,1.01,0.09,1.81,0.16,2.18h-1.11c-0.09-0.27-0.16-0.78-0.21-1.76
			c-0.39,0.85-1.41,2.04-3.78,2.04c-2.67,0-3.83-1.72-3.83-3.44c0-2.52,1.96-3.66,5.41-3.66c0.97,0,1.73,0,2.19,0v-1.17
			c0-1.15-0.35-2.68-2.97-2.68c-2.33,0-2.67,1.21-2.93,2.15h-1.15c0.14-1.26,0.92-3.21,4.1-3.21c2.63,0,4.1,1.1,4.1,3.62V128.49z
			 M176.92,124.82c-0.44,0-1.5,0-2.26,0c-2.56,0-4.15,0.67-4.15,2.63c0,1.44,1.04,2.43,2.65,2.43c3.29,0,3.76-2.18,3.76-4.65V124.82
			z"/>
		<path class="st27" d="M184,130.66v-16.88h1.15v16.88H184z"/>
		<path class="st27" d="M191.07,130.66v-16.88h1.15v16.88H191.07z"/>
		<path class="st27" d="M197.85,119.21c2.33,6.55,3.34,9.25,3.73,10.49h0.02c0.46-1.4,1.38-4.05,3.62-10.49h1.2l-4.33,12.12
			c-1.22,3.39-2.05,4.15-4.12,4.15c-0.41,0-0.69-0.02-1.06-0.07v-1.15c0.35,0.05,0.67,0.07,1.04,0.07c1.66,0,2.19-0.8,3.04-3.16
			l-4.4-11.96H197.85z"/>
		<path class="st27" d="M219.39,126.36c0.48,2.13,1.91,3.39,4.56,3.39c2.95,0,4.08-1.47,4.08-3.21c0-1.81-0.81-2.93-4.35-3.8
			c-3.41-0.85-4.88-1.95-4.88-4.26c0-2.11,1.54-4.08,5-4.08c3.55,0,5.05,2.15,5.25,4.1h-1.29c-0.37-1.72-1.5-2.95-4.03-2.95
			c-2.33,0-3.59,1.08-3.59,2.86c0,1.76,1.06,2.45,4.03,3.18c4.54,1.12,5.21,2.93,5.21,4.86c0,2.36-1.73,4.4-5.46,4.4
			c-4.03,0-5.51-2.34-5.81-4.49H219.39z"/>
		<path class="st27" d="M234.58,113.78h1.15v2.22h-1.15V113.78z M234.58,119.21h1.15v11.45h-1.15V119.21z"/>
		<path class="st27" d="M250.45,129.89c0,3.66-1.64,5.59-4.98,5.59c-3,0-4.24-1.67-4.52-3.41h1.17c0.42,1.58,1.73,2.34,3.39,2.34
			c3,0,3.82-1.92,3.82-4.83v-1.19c-0.62,1.49-1.75,2.29-3.85,2.29c-2.7,0-4.77-2.18-4.77-5.73c0-3.85,2.21-6,4.93-6
			c2.35,0,3.36,1.1,3.69,2.02c0.02-0.66,0.05-1.47,0.07-1.74h1.08c0,0.41-0.05,2.22-0.05,3.32V129.89z M241.95,124.89
			c0,2.73,1.45,4.7,3.66,4.7c2.88,0,3.76-1.9,3.76-4.88c0-3.02-0.92-4.69-3.69-4.69C243.03,120.01,241.95,122.28,241.95,124.89z"/>
		<path class="st27" d="M256.37,122.1c0-1.01,0-1.97-0.02-2.89h1.13c0.05,0.37,0.07,1.85,0.05,2.18c0.51-1.17,1.45-2.45,3.82-2.45
			c2.05,0,3.87,1.15,3.87,4.31v7.42h-1.15v-7.24c0-2.04-0.85-3.37-2.86-3.37c-2.74,0-3.69,2.27-3.69,4.76v5.84h-1.15V122.1z"/>
		<path class="st27" d="M271.4,125.08c0.02,2.96,1.52,4.79,3.73,4.79c2.17,0,2.9-1.21,3.32-2.15h1.17c-0.48,1.51-1.7,3.23-4.54,3.23
			c-3.5,0-4.86-3-4.86-5.91c0-3.28,1.64-6.09,5-6.09c3.55,0,4.68,3.05,4.68,5.2c0,0.32,0,0.64-0.02,0.94H271.4z M278.7,124.07
			c-0.02-2.27-1.27-4.05-3.53-4.05c-2.37,0-3.46,1.65-3.71,4.05H278.7z"/>
		<path class="st27" d="M293.75,113.78v13.58c0,1.1,0,2.15,0.02,3.3h-1.11c-0.05-0.27-0.07-1.35-0.07-1.92
			c-0.58,1.4-1.87,2.2-3.87,2.2c-3,0-4.79-2.43-4.79-5.86c0-3.53,1.96-6.14,5.09-6.14c2.3,0,3.23,0.98,3.57,1.72v-6.87H293.75z
			 M285.16,125.03c0,3.14,1.64,4.83,3.62,4.83c3.04,0,3.87-2.08,3.87-5.2c0-2.95-0.71-4.65-3.66-4.65
			C286.7,120.01,285.16,121.82,285.16,125.03z"/>
		<path class="st27" d="M299.17,130.66v-2.95h1.15v2.95H299.17z"/>
		<path class="st27" d="M314.23,114.63h5.62c3.09,0,4.75,1.63,4.75,3.94c0,1.9-1.15,3.14-2.49,3.5c1.15,0.32,3.06,1.44,3.06,3.96
			c0,3.21-2.42,4.63-5.23,4.63h-5.71V114.63z M319.44,121.53c2.79,0,3.85-1.03,3.85-2.89c0-1.58-1.11-2.86-3.36-2.86h-4.47v5.75
			H319.44z M315.46,129.52H320c2.12,0,3.89-1.05,3.89-3.41c0-2.04-1.31-3.44-4.56-3.44h-3.87V129.52z"/>
		<path class="st27" d="M330.46,130.66v-16.88h1.15v16.88H330.46z"/>
		<path class="st27" d="M346.86,124.92c0,3.18-1.77,6.02-5.21,6.02c-3.11,0-5.05-2.54-5.05-6c0-3.28,1.82-6,5.16-6
			C344.83,118.94,346.86,121.32,346.86,124.92z M337.83,124.94c0,2.73,1.47,4.92,3.92,4.92c2.49,0,3.89-2.04,3.89-4.92
			c0-2.7-1.38-4.92-3.94-4.92C339.07,120.01,337.83,122.19,337.83,124.94z"/>
		<path class="st27" d="M360.34,127.3c-0.55,2.02-1.89,3.64-4.47,3.64c-2.88,0-4.93-2.13-4.93-5.95c0-3.14,1.68-6.05,5.07-6.05
			c2.93,0,4.12,2.06,4.33,3.67h-1.17c-0.35-1.33-1.22-2.59-3.18-2.59c-2.44,0-3.83,2.06-3.83,4.92c0,2.73,1.29,4.92,3.71,4.92
			c1.68,0,2.7-0.85,3.29-2.57H360.34z"/>
		<path class="st27" d="M366.31,125.12c1.06-1.12,4.29-4.37,5.83-5.91h1.47l-4.56,4.56l5.14,6.89h-1.43l-4.54-6.16l-1.91,1.83v4.33
			h-1.15v-16.88h1.15V125.12z"/>
		<path class="st27" d="M386.59,127.3c-0.55,2.02-1.89,3.64-4.47,3.64c-2.88,0-4.93-2.13-4.93-5.95c0-3.14,1.68-6.05,5.07-6.05
			c2.93,0,4.12,2.06,4.33,3.67h-1.17c-0.35-1.33-1.22-2.59-3.18-2.59c-2.44,0-3.83,2.06-3.83,4.92c0,2.73,1.29,4.92,3.71,4.92
			c1.68,0,2.7-0.85,3.29-2.57H386.59z"/>
		<path class="st27" d="M392.56,113.78v7.35c0.65-1.19,1.77-2.2,3.8-2.2c1.64,0,3.89,0.82,3.89,4.44v7.28h-1.15v-7.05
			c0-2.27-1.04-3.55-2.95-3.55c-2.28,0-3.59,1.4-3.59,4.21v6.39h-1.15v-16.88H392.56z"/>
		<path class="st27" d="M414.08,128.49c0,1.01,0.09,1.81,0.16,2.18h-1.11c-0.09-0.27-0.16-0.78-0.21-1.76
			c-0.39,0.85-1.41,2.04-3.78,2.04c-2.67,0-3.82-1.72-3.82-3.44c0-2.52,1.96-3.66,5.41-3.66c0.97,0,1.73,0,2.19,0v-1.17
			c0-1.15-0.35-2.68-2.97-2.68c-2.33,0-2.67,1.21-2.93,2.15h-1.15c0.14-1.26,0.92-3.21,4.1-3.21c2.63,0,4.1,1.1,4.1,3.62V128.49z
			 M412.95,124.82c-0.44,0-1.5,0-2.26,0c-2.56,0-4.15,0.67-4.15,2.63c0,1.44,1.04,2.43,2.65,2.43c3.29,0,3.76-2.18,3.76-4.65V124.82
			z"/>
		<path class="st27" d="M420.02,113.78h1.15v2.22h-1.15V113.78z M420.02,119.21h1.15v11.45h-1.15V119.21z"/>
		<path class="st27" d="M427.1,122.1c0-1.01,0-1.97-0.02-2.89h1.13c0.05,0.37,0.07,1.85,0.05,2.18c0.51-1.17,1.45-2.45,3.83-2.45
			c2.05,0,3.87,1.15,3.87,4.31v7.42h-1.15v-7.24c0-2.04-0.85-3.37-2.86-3.37c-2.74,0-3.69,2.27-3.69,4.76v5.84h-1.15V122.1z"/>
		<path class="st27" d="M450.49,126.36c0.48,2.13,1.91,3.39,4.56,3.39c2.95,0,4.08-1.47,4.08-3.21c0-1.81-0.81-2.93-4.35-3.8
			c-3.41-0.85-4.88-1.95-4.88-4.26c0-2.11,1.54-4.08,5-4.08c3.55,0,5.05,2.15,5.25,4.1h-1.29c-0.37-1.72-1.5-2.95-4.03-2.95
			c-2.33,0-3.59,1.08-3.59,2.86c0,1.76,1.06,2.45,4.03,3.18c4.54,1.12,5.21,2.93,5.21,4.86c0,2.36-1.73,4.4-5.46,4.4
			c-4.03,0-5.51-2.34-5.81-4.49H450.49z"/>
		<path class="st27" d="M465.93,125.08c0.02,2.96,1.52,4.79,3.73,4.79c2.17,0,2.9-1.21,3.32-2.15h1.17
			c-0.48,1.51-1.71,3.23-4.54,3.23c-3.5,0-4.86-3-4.86-5.91c0-3.28,1.64-6.09,5-6.09c3.55,0,4.68,3.05,4.68,5.2
			c0,0.32,0,0.64-0.02,0.94H465.93z M473.23,124.07c-0.02-2.27-1.27-4.05-3.52-4.05c-2.37,0-3.46,1.65-3.71,4.05H473.23z"/>
		<path class="st27" d="M487.86,127.3c-0.55,2.02-1.89,3.64-4.47,3.64c-2.88,0-4.93-2.13-4.93-5.95c0-3.14,1.68-6.05,5.07-6.05
			c2.93,0,4.12,2.06,4.33,3.67h-1.17c-0.35-1.33-1.22-2.59-3.18-2.59c-2.44,0-3.83,2.06-3.83,4.92c0,2.73,1.29,4.92,3.71,4.92
			c1.68,0,2.7-0.85,3.29-2.57H487.86z"/>
		<path class="st27" d="M501.3,127.32c0,1.12,0.02,2.91,0.02,3.34h-1.11c-0.05-0.3-0.07-1.05-0.07-1.99
			c-0.48,1.35-1.66,2.27-3.71,2.27c-1.66,0-3.78-0.64-3.78-4.15v-7.58h1.13v7.31c0,1.67,0.53,3.3,2.81,3.3
			c2.58,0,3.55-1.44,3.55-4.72v-5.89h1.15V127.32z"/>
		<path class="st27" d="M507.22,122.33c0-1.92-0.02-2.75-0.02-3.11h1.13c0.02,0.37,0.05,1.1,0.05,2.56
			c0.67-1.72,2.14-2.75,4.01-2.84v1.24c-2.4,0.16-4.01,1.81-4.01,4.53v5.96h-1.15V122.33z"/>
		<path class="st27" d="M517.08,125.08c0.02,2.96,1.52,4.79,3.73,4.79c2.17,0,2.9-1.21,3.32-2.15h1.17
			c-0.48,1.51-1.71,3.23-4.54,3.23c-3.5,0-4.86-3-4.86-5.91c0-3.28,1.64-6.09,5-6.09c3.55,0,4.68,3.05,4.68,5.2
			c0,0.32,0,0.64-0.02,0.94H517.08z M524.38,124.07c-0.02-2.27-1.27-4.05-3.52-4.05c-2.37,0-3.46,1.65-3.71,4.05H524.38z"/>
		<path class="st27" d="M539.43,113.78v13.58c0,1.1,0,2.15,0.02,3.3h-1.11c-0.05-0.27-0.07-1.35-0.07-1.92
			c-0.58,1.4-1.87,2.2-3.87,2.2c-3,0-4.79-2.43-4.79-5.86c0-3.53,1.96-6.14,5.09-6.14c2.3,0,3.23,0.98,3.57,1.72v-6.87H539.43z
			 M530.84,125.03c0,3.14,1.64,4.83,3.62,4.83c3.04,0,3.87-2.08,3.87-5.2c0-2.95-0.71-4.65-3.66-4.65
			C532.38,120.01,530.84,121.82,530.84,125.03z"/>
	</g>
</g>
</svg>
